<?xml version="1.0" encoding="UTF-8" standalone="no" ?>
<!DOCTYPE svg PUBLIC "-//W3C//DTD SVG 1.1//EN" "http://www.w3.org/Graphics/SVG/1.1/DTD/svg11.dtd">
<svg xmlns="http://www.w3.org/2000/svg" xmlns:xlink="http://www.w3.org/1999/xlink" version="1.1" width="500" height="500" viewBox="0 0 500 500" xml:space="preserve">
<!-- Created with SVG Stack Editor - https://svgstack.com -->
<defs>
</defs>
<rect x="0" y="0" width="100%" height="100%" fill="transparent"></rect>
<g transform="matrix(6.96 0 0 6.96 250 250)"  >
<g style=""   >
		<g transform="matrix(1 0 0 1 17.19 17.19)" id="path_0" clip-path="url(#CLIPPATH_1)"  >
<clipPath id="CLIPPATH_1" >
	<rect transform="matrix(1 0 0 1 -15.63 -15.62)" id="clip0_790_3387" x="-50" y="-50" rx="0" ry="0" width="100" height="100" />
</clipPath>
<path style="stroke: rgb(255,255,255); stroke-width: 6.25; stroke-dasharray: none; stroke-linecap: round; stroke-dashoffset: 0; stroke-linejoin: round; stroke-miterlimit: 4; fill: none; fill-rule: nonzero; opacity: 1;"  transform=" translate(-65.63, -65.62)" d="M 81.25 49.9996 L 50 81.2496" stroke-linecap="round" />
</g>
		<g transform="matrix(1 0 0 1 -3.13 -3.13)" id="path_1" clip-path="url(#CLIPPATH_2)"  >
<clipPath id="CLIPPATH_2" >
	<rect transform="matrix(1 0 0 1 4.69 4.69)" id="clip0_790_3387" x="-50" y="-50" rx="0" ry="0" width="100" height="100" />
</clipPath>
<path style="stroke: rgb(255,255,255); stroke-width: 6.25; stroke-dasharray: none; stroke-linecap: round; stroke-dashoffset: 0; stroke-linejoin: round; stroke-miterlimit: 4; fill: none; fill-rule: nonzero; opacity: 1;"  transform=" translate(-45.31, -45.31)" d="M 75 15.6246 L 15.625 74.9996" stroke-linecap="round" />
</g>
</g>
</g>
<g transform="matrix(6.96 0 0 6.96 250 250)"  >
<g style=""   >
		<g transform="matrix(1 0 0 1 17.19 17.19)" id="path_0" clip-path="url(#CLIPPATH_3)"  >
<clipPath id="CLIPPATH_3" >
	<rect transform="matrix(1 0 0 1 -15.63 -15.62)" id="clip0_790_3387" x="-50" y="-50" rx="0" ry="0" width="100" height="100" />
</clipPath>
<path style="stroke: rgb(255,255,255); stroke-width: 6.25; stroke-dasharray: none; stroke-linecap: round; stroke-dashoffset: 0; stroke-linejoin: round; stroke-miterlimit: 4; fill: none; fill-rule: nonzero; opacity: 1;"  transform=" translate(-65.63, -65.62)" d="M 81.25 49.9996 L 50 81.2496" stroke-linecap="round" />
</g>
		<g transform="matrix(1 0 0 1 -3.13 -3.13)" id="path_1" clip-path="url(#CLIPPATH_4)"  >
<clipPath id="CLIPPATH_4" >
	<rect transform="matrix(1 0 0 1 4.69 4.69)" id="clip0_790_3387" x="-50" y="-50" rx="0" ry="0" width="100" height="100" />
</clipPath>
<path style="stroke: rgb(255,255,255); stroke-width: 6.25; stroke-dasharray: none; stroke-linecap: round; stroke-dashoffset: 0; stroke-linejoin: round; stroke-miterlimit: 4; fill: none; fill-rule: nonzero; opacity: 1;"  transform=" translate(-45.31, -45.31)" d="M 75 15.6246 L 15.625 74.9996" stroke-linecap="round" />
</g>
</g>
</g>
</svg>